<?xml version="1.0" encoding="UTF-8"?>
<svg width="308px" height="528px" viewBox="0 0 308 528" version="1.1" xmlns="http://www.w3.org/2000/svg" xmlns:xlink="http://www.w3.org/1999/xlink">
    <title>Group 98</title>
    <defs>
        <polygon id="path-1" points="0 0.173757795 83.7256226 0.173757795 83.7256226 63.9861479 0 63.9861479"></polygon>
    </defs>
    <g id="Pubblica" stroke="none" stroke-width="1" fill="none" fill-rule="evenodd">
        <g id="Certificato-Europeo-COVID-19-homepage" transform="translate(-1189.000000, -2244.000000)">
            <g id="Group-98" transform="translate(1189.000000, 2244.000000)">
                <path d="M93.574126,188.173378 C91.7258689,193.060097 88.5208176,198.732167 85.1584334,200.14261 C81.345136,201.741218 79.7555863,204 79.7555863,204 L76.6762392,202.242727 L73,200.14261 C73,200.14261 73.0859654,199.740765 73.2660063,199.08697 C73.4436141,198.436364 73.7193523,197.529024 74.0932209,196.524413 C74.0932209,196.524413 75.2205036,195.099618 74.5303471,193.307263 C73.8377576,191.518895 73.9764377,188.754618 75.1564351,187.06671 C76.3356214,185.38279 77.4726361,181.231192 78.1830675,181.353978 C79.9039984,181.644996 77.338011,187.352148 78.0743942,188.410179 C78.7394099,189.36775 79.5714905,189.039258 79.7263905,188.965905 C79.7361224,188.959527 79.7458544,188.956337 79.7555863,188.950756 C84.5793831,186.864991 90.4298993,175.623704 93.0194056,177.140189 C93.9877333,177.708672 94.3616019,186.091599 93.574126,188.173378" id="Fill-1" fill="#FFB27D" transform="translate(83.500000, 190.500000) scale(-1, 1) translate(-83.500000, -190.500000) "></path>
                <path d="M67.4119233,194.765348 L73.6047589,198.835506 C74.0436016,199.123122 74.6519972,199.023622 74.9595196,198.614741 L90.8243492,177.501379 C91.1318716,177.092498 91.0246543,176.522707 90.588305,176.234313 L84.3954694,172.164155 C83.9566267,171.877316 83.3482311,171.976039 83.0407087,172.38492 L67.1758791,193.498282 C66.8683568,193.907163 66.9747429,194.477731 67.4119233,194.765348" id="Fill-3" fill="#2B478B" transform="translate(79.000000, 185.500000) scale(-1, 1) translate(-79.000000, -185.500000) "></path>
                <path d="M66.3103608,199.31327 L69.8988502,201.865541 C70.2283634,202.100893 70.686888,202.018561 70.9177938,201.686741 L86.8675483,178.717961 C87.0992758,178.385309 87.0187464,177.920428 86.6900549,177.685908 L83.1007438,175.133637 C82.7712306,174.899949 82.312706,174.980617 82.0818002,175.3141 L66.1320457,198.281217 C65.9011399,198.614701 65.9808476,199.07875 66.3103608,199.31327" id="Fill-5" fill="#233862" transform="translate(76.500000, 188.500000) scale(-1, 1) translate(-76.500000, -188.500000) "></path>
                <path d="M104.566597,163 C104.566597,163 135.009215,216.868682 146.054148,226.780285 L186.550096,196.150271 C186.550096,196.150271 192.426649,197.978965 195,203.962745 C195,203.962745 170.409045,254.791478 146.196265,256.945997 C121.982681,259.101331 88,196.0232 88,196.0232 L104.566597,163 Z" id="Fill-7" fill="#94B0ED" transform="translate(141.500000, 210.000000) scale(-1, 1) translate(-141.500000, -210.000000) "></path>
                <path d="M278.821455,528 L261.424597,528 C259.234405,526.787181 257.283244,524.011785 256.66621,519.872979 C255.816498,514.157832 249.534189,511.043203 248.175444,506.367615 C246.818288,501.696885 253.780366,495.118678 253.780366,495.118678 L254.945345,493.588485 L256.156383,492 L267.702935,494.772158 C267.702935,494.772158 267.988819,497.576701 268.162732,501.147959 C268.288204,503.724997 268.354116,506.701181 268.212762,509.313033 C267.872877,515.543911 269.921715,522.256516 275.353518,523.469335 C279.368606,524.364781 279.189928,526.793658 278.821455,528" id="Fill-9" fill="#233862" transform="translate(263.500000, 510.000000) scale(-1, 1) translate(-263.500000, -510.000000) "></path>
                <path d="M184,528 L144.285447,528 C142.375065,525.590106 143.078973,516.695629 143.368305,513.791461 C143.427757,513.206201 143.468977,512.865209 143.468977,512.865209 C143.468977,512.865209 157.031107,501.649365 158.893135,510.237277 C158.949416,510.506955 159.019173,510.770077 159.094478,511.029919 C161.44084,519.063719 171.967761,522.714627 178.046107,523.731864 C181.998458,524.394995 183.458593,526.517997 184,528" id="Fill-11" fill="#233862" transform="translate(163.500000, 517.500000) scale(-1, 1) translate(-163.500000, -517.500000) "></path>
                <path d="M210,300.645024 C210,300.645024 207.923977,326.962435 205.485169,358.598383 C202.168166,401.571336 198.180731,454.358002 197.785983,464.35766 C197.104363,481.722069 194.368296,509.497815 194.368296,509.497815 C194.368296,509.497815 187.878126,516.09767 174.889795,513.315792 C174.889795,513.315792 163.317443,473.665503 160.01003,431.711597 C159.959688,431.024653 159.907747,430.332026 159.856606,429.639398 C156.781726,386.931154 152,297 152,297 L210,300.645024 Z" id="Fill-13" fill="#3D4BA3" transform="translate(181.000000, 405.500000) scale(-1, 1) translate(-181.000000, -405.500000) "></path>
                <path d="M210,300.652827 C210,300.652827 207.923977,327.026582 205.485169,358.730258 L160.01003,432 C159.959688,431.311586 159.907747,430.617475 159.856606,429.923365 C156.781726,387.123687 152,297 152,297 L210,300.652827 Z" id="Fill-15" fill="#2B3889" transform="translate(181.000000, 364.500000) scale(-1, 1) translate(-181.000000, -364.500000) "></path>
                <path d="M272,304.140763 C272,304.140763 234.135548,399.194379 209.238684,443.863854 C184.341821,488.533328 176.561753,501 176.561753,501 C176.561753,501 162.297891,495.285333 161,491.390257 C161,491.390257 170.521102,405.152792 187.193946,384.13072 C196.615583,372.251954 207.682024,336.604317 208.200372,324.138455 C208.719528,311.671783 211.572462,287 211.572462,287 L272,304.140763 Z" id="Fill-17" fill="#5664BF" transform="translate(216.500000, 394.000000) scale(-1, 1) translate(-216.500000, -394.000000) "></path>
                <path d="M212,165.949619 C196.983546,170.676013 171,157.919742 171,157.919742 C171,157.919742 184.845307,147.553276 184.120624,126 L195.731969,135.334077 L203.618952,141.674142 C203.618952,141.674142 203.586124,145.411539 202.723562,151.962012 C202.497047,153.68539 204.445403,157.485827 206.133595,159.621834 C210.685229,165.383892 212,165.949619 212,165.949619" id="Fill-19" fill="#FFB27D" transform="translate(191.500000, 146.500000) scale(-1, 1) translate(-191.500000, -146.500000) "></path>
                <path d="M198,140.621935 C198,140.621935 197.96809,144.392098 197.129655,151 C188.635219,149.491935 179,135.277636 179,135.277636 C183.3246,133.985127 187.111517,133.752228 190.333627,134.227111 L198,140.621935 Z" id="Fill-21" fill="#ED975D" transform="translate(188.500000, 142.500000) scale(-1, 1) translate(-188.500000, -142.500000) "></path>
                <path d="M198.232026,140.50925 C198.232026,140.50925 173.792926,144.577202 171.49893,129.288962 C169.204934,114.001532 164.506165,104.23067 180.011861,100.987489 C195.519175,97.7434975 199.431987,103.119092 201.437312,108.035311 C203.441021,112.951529 204.529396,139.057394 198.232026,140.50925" id="Fill-23" fill="#FFB27D" transform="translate(186.000000, 120.500000) scale(-1, 1) translate(-186.000000, -120.500000) "></path>
                <path d="M222.953916,304.013785 C217.399938,303.938008 201.204405,307.047324 187.50012,305.628739 C175.94597,304.51082 165.7207,301.060098 154.739651,296.098718 C153.281438,295.439537 149.925287,293.634732 150.001269,291.99126 C150.049768,290.192973 150.227599,287.582321 150.449887,284.296191 C151.226685,272.871737 152.58224,253.219328 151.261442,230.546417 C151.023796,226.3257 150.899314,222.137575 150.883956,218.014635 C150.769983,187.287325 156.815421,160.260068 168.960454,151.112193 C169.998339,150.363382 176.367105,153.501217 182.219354,156.410904 C187.626218,159.099778 193.033081,159.396369 198.141674,158.354227 L203.251076,162.907387 C209.472727,168.730021 216.286879,176.645088 219.24857,188.663539 C221.769725,198.891038 223.248145,217.334268 224.063742,236.446458 C224.433145,245.106262 224.730607,253.842658 224.80659,262.130908 L224.80659,262.426684 C224.87853,263.248012 224.87853,264.145933 224.87853,264.968077 C225.175993,286.244403 224.87853,303.116679 224.509127,303.416529 C224.063742,303.789712 223.547224,304.013785 222.953916,304.013785 Z" id="Fill-25" fill="#AEC3FF" transform="translate(187.500000, 228.500000) scale(-1, 1) translate(-187.500000, -228.500000) "></path>
                <path d="M200,285 C200.787722,273.526827 202.162343,253.789794 200.822969,231.021015 C200.58198,226.782299 200.455748,222.576314 200.440174,218.435793 C205.570616,206.010954 209.764152,197 209.764152,197 L222.696407,197 C222.696407,197 232.177765,261.651057 200,285" id="Fill-27" fill="#94B0ED" transform="translate(212.000000, 241.000000) scale(-1, 1) translate(-212.000000, -241.000000) "></path>
                <path d="M228.199237,356.164077 L282.752248,363.870574 C289.85249,364.873672 296.488192,359.935341 297.500775,352.896773 L300.869296,329.458187 C301.881879,322.419619 296.899224,315.839197 289.799793,314.836098 L235.246782,307.129601 C228.148162,306.125699 221.510839,311.064834 220.499066,318.103402 L217.130546,341.542791 C216.118773,348.580556 221.099806,355.160978 228.199237,356.164077" id="Fill-29" fill="#233862" transform="translate(259.000000, 335.500000) scale(-1, 1) translate(-259.000000, -335.500000) "></path>
                <g id="Group-33" transform="translate(266.000000, 332.000000) scale(-1, 1) translate(-266.000000, -332.000000) translate(224.000000, 300.000000)">
                    <mask id="mask-2" fill="white">
                        <use xlink:href="#path-1"></use>
                    </mask>
                    <g id="Clip-32"></g>
                    <path d="M40.3456038,4.26183291 C40.4481808,3.54892152 41.0054885,3.00937722 41.6807192,2.90001013 C41.8382192,2.8748962 41.9973346,2.8716557 42.1645269,2.89514937 L44.5779115,3.23783291 L53.5206808,4.51864304 L58.3967192,5.2153519 C59.2730654,5.34011139 59.8844885,6.15914937 59.7592962,7.03651646 L59.0364115,12.134643 L39.6227192,9.35752911 L40.3456038,4.26183291 Z M82.7995269,22.1988456 L82.7995269,22.1964152 C81.2729885,18.3620861 77.9751808,15.3354532 73.7953731,14.3074025 L73.7913346,14.3074025 C73.7889115,14.3074025 73.7856808,14.3074025 73.7816423,14.304162 C73.37295,14.2045165 72.9561808,14.1210734 72.5281038,14.0611241 L61.7058346,12.5154025 L62.4295269,7.41808608 C62.5926808,6.28147848 62.3011038,5.14568101 61.6089115,4.21970633 C60.9183346,3.29940253 59.9103346,2.69828861 58.7763346,2.53788354 L55.95345,2.13363038 L44.5908346,0.508516456 L42.5417192,0.216870886 C40.1953731,-0.116901266 38.00895,1.52360506 37.6769885,3.88026329 L36.9541038,8.97757975 L18.2729885,6.30659241 C11.1741808,5.29231392 4.53818077,10.2875544 3.52371923,17.4093772 L0.130603846,41.3081114 C-0.881434615,48.4291241 4.09960385,55.0843139 11.1992192,56.0985924 L65.4502962,63.8555544 C66.4074115,63.9932759 67.3548346,64.0200101 68.28045,63.9454785 L68.2836808,63.9454785 L68.2901423,63.9454785 C69.7754885,63.8328709 71.2026808,63.4602127 72.5248731,62.873681 C76.51245,61.1076051 79.5404885,57.376162 80.2003731,52.7503392 L83.5959115,28.8540354 C83.92545,26.5241114 83.6152962,24.2476557 82.7995269,22.1988456 L82.7995269,22.1988456 Z" id="Fill-31" fill="#2B478B" mask="url(#mask-2)"></path>
                </g>
                <path d="M265,285.719604 C265,285.719604 262.059313,289.527366 261.941985,291.048692 C261.15231,301.359089 265.999368,302.785786 253.450272,308.511987 C253.450272,308.511987 248.092296,310.498364 248.001596,306.456055 C247.910895,302.415363 251.719477,302.347425 251.022998,296.688353 C250.219177,290.159836 250.300724,290.098369 254.708427,286.689338 L257.628311,282 L265,285.719604 Z" id="Fill-34" fill="#FFB27D" transform="translate(256.500000, 295.500000) scale(-1, 1) translate(-256.500000, -295.500000) "></path>
                <path d="M195.333217,290.393749 C199.940815,291.290606 204.935217,290.927168 204.935217,290.927168 C204.935217,290.927168 218.612857,248.751444 220.373346,244.899332 C222.134645,241.046411 261,195.445957 261,195.445957 L244.809346,155 C244.809346,155 202.770895,225.092404 198.501447,234.940826 C191.448141,251.216989 189,287.706418 189,287.706418 C189,287.706418 191.715742,289.690348 195.333217,290.393749" id="Fill-36" fill="#AEC3FF" transform="translate(225.000000, 223.000000) scale(-1, 1) translate(-225.000000, -223.000000) "></path>
                <path d="M169.834143,129 C169.834143,129 172.295364,128.577835 171.898649,125.102902 C171.501933,121.62797 171.505901,117.086643 174.262277,117.933414 C177.018654,118.780184 177.155124,121.041493 178.287348,119.721312 C179.419573,118.399504 179.440202,112.834894 187.640303,112.446892 C195.839611,112.05889 199.172018,114.985578 202.985243,113.266007 C206.799262,111.548062 207,105.631241 207,105.631241 C207,105.631241 205.916174,107.743695 204.277741,108.41558 C204.277741,108.41558 210.639464,99.4964237 203.274052,93.3786879 C195.908639,87.2617654 188.398029,91.2662347 184.134929,91.5305964 C174.743889,92.1138189 168.678909,92.6913475 165.610714,99.0181324 C162.54252,105.344104 163.808041,122.910734 169.834143,129" id="Fill-38" fill="#2B478B" transform="translate(185.500000, 109.500000) scale(-1, 1) translate(-185.500000, -109.500000) "></path>
                <path d="M248.32458,292 C248.32458,292 251.959573,294.8341 252.188095,296.011514 C252.924918,299.796172 254.614272,301.431291 253.768527,301.842667 C252.007627,302.698968 249.678626,299.896819 248.565916,297.382234 C247.453207,294.868448 248.32458,292 248.32458,292" id="Fill-40" fill="#FFB27D" transform="translate(251.000000, 297.000000) scale(-1, 1) translate(-251.000000, -297.000000) "></path>
                <polygon id="Fill-42" fill="#FFFFFF" transform="translate(230.500000, 87.500000) scale(-1, 1) translate(-230.500000, -87.500000) " points="224.435532 98 221 98 221 77 240 77 240 80.6696397 224.435532 80.6696397"></polygon>
                <polygon id="Fill-44" fill="#FFFFFF" transform="translate(153.500000, 87.500000) scale(-1, 1) translate(-153.500000, -87.500000) " points="164 97 160.329395 97 160.329395 81.4355322 143 81.4355322 143 78 164 78"></polygon>
                <polygon id="Fill-46" fill="#FFFFFF" transform="translate(152.500000, 152.500000) scale(-1, 1) translate(-152.500000, -152.500000) " points="162 163 143 163 143 159.329395 158.564468 159.329395 158.564468 142 162 142"></polygon>
                <polygon id="Fill-48" fill="#FFFFFF" transform="translate(230.500000, 152.500000) scale(-1, 1) translate(-230.500000, -152.500000) " points="241 162 220 162 220 143 223.669783 143 223.669783 158.564607 241 158.564607"></polygon>
                <g id="Group-95">
                    <rect id="Rectangle" fill="#FFFFFF" x="0" y="0" width="100" height="151" rx="13"></rect>
                    <g id="Group-86" transform="translate(19.000000, 15.000000)">
                        <polygon id="Fill-1" fill="#2B478B" points="0 14 14 14 14 0 0 0"></polygon>
                        <polygon id="Fill-3" fill="#FFFFFF" points="1 13 13 13 13 1 1 1"></polygon>
                        <polygon id="Fill-4" fill="#2B478B" points="4 12 12 12 12 4 4 4"></polygon>
                        <polygon id="Fill-6" fill="#2B478B" points="47 14 61 14 61 0 47 0"></polygon>
                        <polygon id="Fill-8" fill="#FFFFFF" points="48 13 60 13 60 1 48 1"></polygon>
                        <polygon id="Fill-9" fill="#2B478B" points="50 12 58 12 58 4 50 4"></polygon>
                        <polygon id="Fill-11" fill="#2B478B" points="47 61 61 61 61 47 47 47"></polygon>
                        <polygon id="Fill-13" fill="#FFFFFF" points="48 60 60 60 60 48 48 48"></polygon>
                        <polygon id="Fill-14" fill="#2B478B" points="50 58 58 58 58 50 50 50"></polygon>
                        <polygon id="Fill-16" fill="#2B478B" points="25 31 31 31 31 25 25 25"></polygon>
                        <polygon id="Fill-18" fill="#2B478B" points="30 36 36 36 36 30 30 30"></polygon>
                        <polygon id="Fill-20" fill="#2B478B" points="31 24 37 24 37 18 31 18"></polygon>
                        <polygon id="Fill-22" fill="#2B478B" points="37 24 43 24 43 18 37 18"></polygon>
                        <polygon id="Fill-24" fill="#2B478B" points="43 31 49 31 49 25 43 25"></polygon>
                        <polygon id="Fill-26" fill="#2B478B" points="48 36 54 36 54 30 48 30"></polygon>
                        <polygon id="Fill-28" fill="#2B478B" points="48 42 54 42 54 36 48 36"></polygon>
                        <polygon id="Fill-30" fill="#2B478B" points="49 24 55 24 55 18 49 18"></polygon>
                        <polygon id="Fill-32" fill="#2B478B" points="19 31 25 31 25 25 19 25"></polygon>
                        <polygon id="Fill-34" fill="#2B478B" points="12 24 18 24 18 18 12 18"></polygon>
                        <polygon id="Fill-36" fill="#2B478B" points="0 25 6 25 6 19 0 19"></polygon>
                        <polygon id="Fill-38" fill="#2B478B" points="55 31 61 31 61 25 55 25"></polygon>
                        <polygon id="Fill-40" fill="#2B478B" points="55 42 61 42 61 36 55 36"></polygon>
                        <polygon id="Fill-42" fill="#2B478B" points="19 18 25 18 25 12 19 12"></polygon>
                        <polygon id="Fill-44" fill="#2B478B" points="19 13 25 13 25 7 19 7"></polygon>
                        <polygon id="Fill-46" fill="#2B478B" points="19 7 25 7 25 1 19 1"></polygon>
                        <polygon id="Fill-48" fill="#2B478B" points="25 7 31 7 31 1 25 1"></polygon>
                        <polygon id="Fill-50" fill="#2B478B" points="30 13 36 13 36 7 30 7"></polygon>
                        <polygon id="Fill-52" fill="#2B478B" points="37 18 43 18 43 12 37 12"></polygon>
                        <polygon id="Fill-54" fill="#2B478B" points="37 6 43 6 43 0 37 0"></polygon>
                        <polygon id="Fill-56" fill="#2B478B" points="19 36 25 36 25 30 19 30"></polygon>
                        <polygon id="Fill-58" fill="#2B478B" points="25 43 31 43 31 37 25 37"></polygon>
                        <polygon id="Fill-60" fill="#2B478B" points="12 43 18 43 18 37 12 37"></polygon>
                        <polygon id="Fill-62" fill="#2B478B" points="7 31 13 31 13 25 7 25"></polygon>
                        <polygon id="Fill-64" fill="#2B478B" points="0 31 6 31 6 25 0 25"></polygon>
                        <polygon id="Fill-66" fill="#2B478B" points="25 49 31 49 31 43 25 43"></polygon>
                        <polygon id="Fill-68" fill="#2B478B" points="25 54 31 54 31 48 25 48"></polygon>
                        <polygon id="Fill-70" fill="#2B478B" points="30 54 36 54 36 48 30 48"></polygon>
                        <polygon id="Fill-72" fill="#2B478B" points="7 43 13 43 13 37 7 37"></polygon>
                        <polygon id="Fill-74" fill="#2B478B" points="7 49 13 49 13 43 7 43"></polygon>
                        <polygon id="Fill-76" fill="#2B478B" points="12 54 18 54 18 48 12 48"></polygon>
                        <polygon id="Fill-78" fill="#2B478B" points="19 61 25 61 25 55 19 55"></polygon>
                        <polygon id="Fill-80" fill="#2B478B" points="37 61 43 61 43 55 37 55"></polygon>
                        <polygon id="Fill-82" fill="#2B478B" points="0 54 6 54 6 48 0 48"></polygon>
                        <polygon id="Fill-84" fill="#2B478B" points="37 49 43 49 43 43 37 43"></polygon>
                    </g>
                    <g id="Group-25" transform="translate(50.000000, 103.500000) scale(-1, 1) translate(-50.000000, -103.500000) translate(16.000000, 91.000000)" fill="#94B0ED">
                        <polygon id="Fill-56" points="17 15 68 15 68 11 17 11"></polygon>
                        <polygon id="Fill-57" points="37 4 67 4 67 0 37 0"></polygon>
                        <polygon id="Fill-58" points="0 4 30 4 30 0 0 0"></polygon>
                        <polygon id="Fill-59" points="37 25 67 25 67 21 37 21"></polygon>
                        <polygon id="Fill-60" points="0 25 30 25 30 21 0 21"></polygon>
                    </g>
                    <rect id="Rectangle" fill="#94B0ED" x="17" y="129" width="67" height="10" rx="4"></rect>
                </g>
            </g>
        </g>
    </g>
</svg>