<?xml version="1.0" encoding="UTF-8"?>
<svg width="18px" height="16px" viewBox="0 0 18 16" version="1.1" xmlns="http://www.w3.org/2000/svg" xmlns:xlink="http://www.w3.org/1999/xlink">
    <title>Group</title>
    <g id="Homepage" stroke="none" stroke-width="1" fill="none" fill-rule="evenodd">
        <g id="Certificato-Europeo-COVID-19" transform="translate(-1159.000000, -791.000000)" fill="#FFFFFF" fill-rule="nonzero">
            <g id="Group-19" transform="translate(1053.000000, 784.000000)">
                <g id="Group" transform="translate(115.000000, 15.000000) scale(-1, 1) translate(-115.000000, -15.000000) translate(106.000000, 7.000000)">
                    <path d="M0,8.00034693 C0.0116249879,8.29152377 0.110399885,8.61618131 0.246112244,8.80312577 L5.12110717,15.5414227 C5.53728173,16.0940439 6.25191849,16.1395692 6.70908051,15.7192284 C7.16624254,15.2988456 7.24157996,14.4491937 6.86718035,13.9358229 L3.49218386,9.26376971 L16.8749637,9.26376971 C17.4963005,9.26376971 18,8.69809322 18,8.00034693 C18,7.30255852 17.4963005,6.7369452 16.8749637,6.7369452 L3.49218386,6.7369452 L6.86718035,2.06489197 C7.24157996,1.55156329 7.15855504,0.712187304 6.70908051,0.28152859 C6.243631,-0.164459653 5.49535678,-0.0623750922 5.12110717,0.459292176 L0.246112244,7.19752598 C0.055649942,7.45930718 0.015374984,7.68091153 0,8.00034693 Z" id="Path"></path>
                </g>
            </g>
        </g>
    </g>
</svg>